Coordinates
version=1
nRows=17
nColumns=24
inDegrees=yes

Units are S.I. units (second, meters, Newtons, ...)
Angles are in degrees.

endheader
time	pelvis_tilt	pelvis_list	pelvis_rotation	pelvis_tx	pelvis_ty	pelvis_tz	hip_flexion_r	hip_adduction_r	hip_rotation_r	knee_angle_r	ankle_angle_r	subtalar_angle_r	mtp_angle_r	hip_flexion_l	hip_adduction_l	hip_rotation_l	knee_angle_l	ankle_angle_l	subtalar_angle_l	mtp_angle_l	lumbar_extension	lumbar_bending	lumbar_rotation
      6.02500000	     12.81652965	     -3.04743867	      9.10887735	      2.38735322	      0.75542609	     -0.30271664	     -7.91698131	      7.91619155	     -3.60125313	    -14.97838117	     27.34501788	      3.70024329	      0.00000000	     14.74347408	     -0.74329611	      4.07953365	    -58.95506089	     21.55022162	     -5.94916927	      0.00000000	    -33.91093823	      7.61918295	      2.21176062
      6.03000000	     12.81740287	     -3.12463788	      8.63278157	      2.39423405	      0.75544012	     -0.30256659	     -8.69054136	      7.95379818	     -3.49664118	    -14.58134810	     27.59812731	      4.23072525	      0.00000000	     15.23369501	     -0.89419683	      3.44463965	    -57.33777769	     21.68761846	     -6.16675018	      0.00000000	    -34.03375647	      7.48075870	      2.75395389
      6.03500000	     12.84428948	     -3.16103307	      8.14748152	      2.40113390	      0.75542365	     -0.30243460	     -9.49836128	      7.93285590	     -3.42265053	    -14.19493049	     27.91095492	      4.82629328	      0.00000000	     15.62848055	     -1.01499694	      2.80368223	    -55.60391653	     21.80250346	     -6.30400823	      0.00000000	    -34.18751232	      7.30156905	      3.26140935
      6.04000000	     12.86844800	     -3.23170701	      7.66224876	      2.40801631	      0.75532299	     -0.30232063	    -10.29035870	      7.93328824	     -3.37928095	    -13.82098163	     28.19051651	      5.43939136	      0.00000000	     15.98985080	     -1.17285635	      2.19226797	    -53.79072486	     21.92205992	     -6.36175417	      0.00000000	    -34.34243244	      7.15911096	      3.77927229
      6.04500000	     12.90229831	     -3.30599119	      7.18019724	      2.41489786	      0.75515715	     -0.30221846	    -11.08579875	      7.92730760	     -3.36148363	    -13.46330897	     28.49454886	      6.05883138	      0.00000000	     16.29366073	     -1.33712631	      1.60915762	    -51.89060910	     22.03535414	     -6.30667047	      0.00000000	    -34.50871724	      7.01854692	      4.29047749
      6.05000000	     12.93466202	     -3.40102056	      6.70346481	      2.42176833	      0.75491658	     -0.30215957	    -11.86775884	      7.93034066	     -3.35728049	    -13.12594605	     28.77934453	      6.66406236	      0.00000000	     16.55731425	     -1.51932678	      1.05549707	    -49.91305583	     22.15873785	     -6.13691867	      0.00000000	    -34.67656034	      6.90964846	      4.81026582
      6.05500000	     12.96778247	     -3.50876895	      6.23218869	      2.42864084	      0.75460580	     -0.30210741	    -12.64193205	      7.94007185	     -3.36064648	    -12.80640182	     29.06692303	      7.24924394	      0.00000000	     16.77292754	     -1.71070570	      0.54621484	    -47.85699461	     22.29281140	     -5.83653912	      0.00000000	    -34.84648934	      6.80997512	      5.31946333
      6.06000000	     13.00202287	     -3.63040707	      5.77174106	      2.43551037	      0.75422745	     -0.30208774	    -13.40731217	      7.95742326	     -3.37019950	    -12.50757567	     29.35052459	      7.80320956	      0.00000000	     16.94260101	     -1.90883621	      0.08199137	    -45.72949365	     22.43809493	     -5.40213451	      0.00000000	    -35.01926499	      6.73175641	      5.82600596
      6.06500000	     13.09200401	     -3.73681037	      5.36294716	      2.44240658	      0.75383439	     -0.30213371	    -14.24443811	      7.96515886	     -3.44376866	    -12.19438246	     29.66709952	      8.38860190	      0.00000000	     16.99729622	     -2.07149406	     -0.28855492	    -43.52116993	     22.60272624	     -4.85747926	      0.00000000	    -35.24725045	      6.66628034	      6.25947855
      6.07000000	     13.10149280	     -3.89495482	      4.91032240	      2.44926472	      0.75330290	     -0.30215319	    -14.94970672	      8.00674708	     -3.40806914	    -11.96612564	     29.93659368	      8.85029148	      0.00000000	     17.10445759	     -2.28465370	     -0.63738697	    -41.27067097	     22.76023106	     -4.15187371	      0.00000000	    -35.39824961	      6.62313274	      6.76992272
      6.07500000	     13.11458524	     -4.05336267	      4.47846202	      2.45615448	      0.75271917	     -0.30220051	    -15.65462309	      8.04685276	     -3.39481152	    -11.75566839	     30.19072960	      9.26148364	      0.00000000	     17.15712700	     -2.49097883	     -0.94209976	    -38.96097843	     22.92668284	     -3.33286834	      0.00000000	    -35.54758986	      6.58720916	      7.25763706
      6.08000000	     13.12420773	     -4.21311671	      4.05685235	      2.46307117	      0.75207635	     -0.30226613	    -16.34749162	      8.08476257	     -3.38702404	    -11.57072888	     30.45475857	      9.62792399	      0.00000000	     17.16518589	     -2.68734843	     -1.18448096	    -36.60876629	     23.08475458	     -2.41155022	      0.00000000	    -35.68872473	      6.55247630	      7.72660274
      6.08500000	     13.13618845	     -4.37547326	      3.66540673	      2.47000731	      0.75137715	     -0.30238107	    -17.03204379	      8.12718092	     -3.37135527	    -11.41662533	     30.72134062	      9.95896998	      0.00000000	     17.12864493	     -2.86617461	     -1.33360560	    -34.22357011	     23.22768520	     -1.43437563	      0.00000000	    -35.82537415	      6.53802853	      8.16334579
      6.09000000	     13.15090016	     -4.53731546	      3.28397087	      2.47697622	      0.75063452	     -0.30249990	    -17.70577322	      8.16520409	     -3.34180685	    -11.30365299	     30.98824547	     10.26839407	      0.00000000	     17.04296425	     -3.03741752	     -1.41747604	    -31.81564147	     23.35567659	     -0.40595521	      0.00000000	    -35.96013807	      6.51855214	      8.56989436
      6.09500000	     13.14768075	     -4.69021370	      2.92665625	      2.48399334	      0.74982621	     -0.30265884	    -18.34757802	      8.19301437	     -3.30745041	    -11.22984751	     31.25897115	     10.53624405	      0.00000000	     16.93901347	     -3.18666413	     -1.44147547	    -29.40751318	     23.44740564	      0.62423480	      0.00000000	    -36.06254734	      6.50080956	      8.96118516
      6.10000000	     13.14656221	     -4.84393172	      2.58210468	      2.49104644	      0.74897616	     -0.30283449	    -18.97192541	      8.21703268	     -3.25438611	    -11.20855059	     31.52822290	     10.78758668	      0.00000000	     16.79945842	     -3.33027693	     -1.39887436	    -27.02009586	     23.50705710	      1.63710227	      0.00000000	    -36.15909822	      6.48640013	      9.32022491
      6.10500000	     13.13687979	     -4.99217513	      2.25560043	      2.49814930	      0.74807660	     -0.30302689	    -19.56773425	      8.23321064	     -3.19019676	    -11.23949707	     31.79977181	     11.01740751	      0.00000000	     16.64314481	     -3.46278277	     -1.29973635	    -24.67809613	     23.52209401	      2.59776252	      0.00000000	    -36.23157089	      6.47076828	      9.65283636
